<mxfile host="app.diagrams.net" agent="Mozilla/5.0 (Windows NT 10.0; Win64; x64) AppleWebKit/537.36 (KHTML, like Gecko) Chrome/136.0.0.0 Safari/537.36" version="26.1.3">
  <diagram id="R2lEEEUBdFMjLlhIrx00" name="Page-1">
    <mxGraphModel dx="692" dy="865" grid="1" gridSize="10" guides="1" tooltips="1" connect="1" arrows="1" fold="1" page="1" pageScale="1" pageWidth="850" pageHeight="1100" background="none" math="0" shadow="0" extFonts="Permanent Marker^https://fonts.googleapis.com/css?family=Permanent+Marker">
      <root>
        <mxCell id="0" />
        <mxCell id="1" parent="0" />
        <mxCell id="zRT3j66zrKLXkPg_bXtF-7" style="edgeStyle=orthogonalEdgeStyle;rounded=0;orthogonalLoop=1;jettySize=auto;html=1;endArrow=none;endFill=0;entryX=0;entryY=0.5;entryDx=0;entryDy=0;" parent="1" source="YGZLaBeO1jee29N05eSP-2" target="zRT3j66zrKLXkPg_bXtF-8" edge="1">
          <mxGeometry relative="1" as="geometry">
            <mxPoint x="210" y="410" as="targetPoint" />
          </mxGeometry>
        </mxCell>
        <mxCell id="YGZLaBeO1jee29N05eSP-2" value="User" style="whiteSpace=wrap;html=1;align=center;" parent="1" vertex="1">
          <mxGeometry x="160" y="170" width="100" height="40" as="geometry" />
        </mxCell>
        <mxCell id="YGZLaBeO1jee29N05eSP-4" style="edgeStyle=orthogonalEdgeStyle;rounded=0;orthogonalLoop=1;jettySize=auto;html=1;entryX=0;entryY=0.5;entryDx=0;entryDy=0;endArrow=none;endFill=0;exitX=1;exitY=0.5;exitDx=0;exitDy=0;" parent="1" source="YGZLaBeO1jee29N05eSP-10" target="YGZLaBeO1jee29N05eSP-2" edge="1">
          <mxGeometry relative="1" as="geometry">
            <mxPoint x="350" y="204.00000000000006" as="sourcePoint" />
            <mxPoint x="260" y="200" as="targetPoint" />
          </mxGeometry>
        </mxCell>
        <mxCell id="YGZLaBeO1jee29N05eSP-7" style="edgeStyle=orthogonalEdgeStyle;rounded=0;orthogonalLoop=1;jettySize=auto;html=1;entryX=0;entryY=0;entryDx=0;entryDy=0;endArrow=none;endFill=0;" parent="1" source="YGZLaBeO1jee29N05eSP-8" target="YGZLaBeO1jee29N05eSP-2" edge="1">
          <mxGeometry relative="1" as="geometry">
            <Array as="points">
              <mxPoint x="170" y="145" />
              <mxPoint x="170" y="170" />
            </Array>
          </mxGeometry>
        </mxCell>
        <mxCell id="YGZLaBeO1jee29N05eSP-8" value="id" style="ellipse;whiteSpace=wrap;html=1;align=center;fontStyle=4;" parent="1" vertex="1">
          <mxGeometry x="70" y="130" width="80" height="30" as="geometry" />
        </mxCell>
        <mxCell id="YGZLaBeO1jee29N05eSP-10" value="username" style="ellipse;whiteSpace=wrap;html=1;align=center;" parent="1" vertex="1">
          <mxGeometry x="70" y="175" width="80" height="30" as="geometry" />
        </mxCell>
        <mxCell id="YGZLaBeO1jee29N05eSP-11" value="password" style="ellipse;whiteSpace=wrap;html=1;align=center;" parent="1" vertex="1">
          <mxGeometry x="70" y="216" width="80" height="30" as="geometry" />
        </mxCell>
        <mxCell id="YGZLaBeO1jee29N05eSP-12" style="edgeStyle=orthogonalEdgeStyle;rounded=0;orthogonalLoop=1;jettySize=auto;html=1;endArrow=none;endFill=0;exitX=1;exitY=0.5;exitDx=0;exitDy=0;entryX=0.25;entryY=1;entryDx=0;entryDy=0;" parent="1" source="YGZLaBeO1jee29N05eSP-11" target="YGZLaBeO1jee29N05eSP-2" edge="1">
          <mxGeometry relative="1" as="geometry">
            <mxPoint x="360" y="210" as="sourcePoint" />
            <mxPoint x="180" y="210" as="targetPoint" />
            <Array as="points">
              <mxPoint x="185" y="231" />
            </Array>
          </mxGeometry>
        </mxCell>
        <mxCell id="YGZLaBeO1jee29N05eSP-13" value="0,N" style="text;html=1;align=center;verticalAlign=middle;resizable=0;points=[];autosize=1;strokeColor=none;fillColor=none;" parent="1" vertex="1">
          <mxGeometry x="254" y="175" width="40" height="30" as="geometry" />
        </mxCell>
        <mxCell id="YGZLaBeO1jee29N05eSP-14" value="unique" style="text;html=1;align=center;verticalAlign=middle;resizable=0;points=[];autosize=1;strokeColor=none;fillColor=none;" parent="1" vertex="1">
          <mxGeometry x="10" y="175" width="60" height="30" as="geometry" />
        </mxCell>
        <mxCell id="YGZLaBeO1jee29N05eSP-15" value="email" style="ellipse;whiteSpace=wrap;html=1;align=center;" parent="1" vertex="1">
          <mxGeometry x="70" y="90" width="80" height="30" as="geometry" />
        </mxCell>
        <mxCell id="YGZLaBeO1jee29N05eSP-17" value="unique" style="text;html=1;align=center;verticalAlign=middle;resizable=0;points=[];autosize=1;strokeColor=none;fillColor=none;" parent="1" vertex="1">
          <mxGeometry x="10" y="90" width="60" height="30" as="geometry" />
        </mxCell>
        <mxCell id="YGZLaBeO1jee29N05eSP-18" value="Score" style="ellipse;whiteSpace=wrap;html=1;align=center;" parent="1" vertex="1">
          <mxGeometry x="100" y="495" width="80" height="30" as="geometry" />
        </mxCell>
        <mxCell id="bnf2ZIn5TdCLEWTEawxb-4" style="edgeStyle=orthogonalEdgeStyle;rounded=0;orthogonalLoop=1;jettySize=auto;html=1;entryX=0.403;entryY=0.024;entryDx=0;entryDy=0;entryPerimeter=0;endArrow=none;endFill=0;" parent="1" source="YGZLaBeO1jee29N05eSP-15" target="YGZLaBeO1jee29N05eSP-2" edge="1">
          <mxGeometry relative="1" as="geometry">
            <Array as="points" />
          </mxGeometry>
        </mxCell>
        <mxCell id="zRT3j66zrKLXkPg_bXtF-8" value="take score" style="rhombus;whiteSpace=wrap;html=1;" parent="1" vertex="1">
          <mxGeometry x="234" y="367.5" width="80" height="45" as="geometry" />
        </mxCell>
        <mxCell id="zRT3j66zrKLXkPg_bXtF-10" style="edgeStyle=orthogonalEdgeStyle;rounded=0;orthogonalLoop=1;jettySize=auto;html=1;endArrow=none;endFill=0;" parent="1" source="zRT3j66zrKLXkPg_bXtF-9" target="YGZLaBeO1jee29N05eSP-18" edge="1">
          <mxGeometry relative="1" as="geometry" />
        </mxCell>
        <mxCell id="zRT3j66zrKLXkPg_bXtF-9" value="Leaderboard" style="whiteSpace=wrap;html=1;" parent="1" vertex="1">
          <mxGeometry x="229" y="490" width="90" height="40" as="geometry" />
        </mxCell>
        <mxCell id="zRT3j66zrKLXkPg_bXtF-11" style="edgeStyle=orthogonalEdgeStyle;rounded=0;orthogonalLoop=1;jettySize=auto;html=1;entryX=0.5;entryY=0;entryDx=0;entryDy=0;endArrow=none;endFill=0;" parent="1" source="zRT3j66zrKLXkPg_bXtF-8" target="zRT3j66zrKLXkPg_bXtF-9" edge="1">
          <mxGeometry relative="1" as="geometry" />
        </mxCell>
        <mxCell id="zRT3j66zrKLXkPg_bXtF-15" value="0,N" style="text;html=1;align=center;verticalAlign=middle;resizable=0;points=[];autosize=1;strokeColor=none;fillColor=none;" parent="1" vertex="1">
          <mxGeometry x="202" y="210" width="40" height="30" as="geometry" />
        </mxCell>
        <mxCell id="zRT3j66zrKLXkPg_bXtF-16" value="1&lt;span style=&quot;background-color: transparent; color: light-dark(rgb(0, 0, 0), rgb(255, 255, 255));&quot;&gt;,N&lt;/span&gt;" style="text;html=1;align=center;verticalAlign=middle;resizable=0;points=[];autosize=1;strokeColor=none;fillColor=none;" parent="1" vertex="1">
          <mxGeometry x="294" y="465" width="40" height="30" as="geometry" />
        </mxCell>
        <mxCell id="LyvjtfNTrB3PjkfO7Csg-1" value="Friend" style="whiteSpace=wrap;html=1;align=center;" parent="1" vertex="1">
          <mxGeometry x="510" y="170" width="100" height="40" as="geometry" />
        </mxCell>
        <mxCell id="LyvjtfNTrB3PjkfO7Csg-6" style="edgeStyle=orthogonalEdgeStyle;rounded=0;orthogonalLoop=1;jettySize=auto;html=1;entryX=1;entryY=0.75;entryDx=0;entryDy=0;endArrow=none;startFill=0;" parent="1" source="LyvjtfNTrB3PjkfO7Csg-5" target="YGZLaBeO1jee29N05eSP-2" edge="1">
          <mxGeometry relative="1" as="geometry" />
        </mxCell>
        <mxCell id="LyvjtfNTrB3PjkfO7Csg-7" style="edgeStyle=orthogonalEdgeStyle;rounded=0;orthogonalLoop=1;jettySize=auto;html=1;entryX=0;entryY=0.75;entryDx=0;entryDy=0;endArrow=none;startFill=0;" parent="1" source="LyvjtfNTrB3PjkfO7Csg-5" target="LyvjtfNTrB3PjkfO7Csg-1" edge="1">
          <mxGeometry relative="1" as="geometry" />
        </mxCell>
        <mxCell id="LyvjtfNTrB3PjkfO7Csg-5" value="add friend" style="rhombus;whiteSpace=wrap;html=1;" parent="1" vertex="1">
          <mxGeometry x="340" y="177" width="80" height="45" as="geometry" />
        </mxCell>
        <mxCell id="LyvjtfNTrB3PjkfO7Csg-8" value="0,N" style="text;html=1;align=center;verticalAlign=middle;resizable=0;points=[];autosize=1;strokeColor=none;fillColor=none;" parent="1" vertex="1">
          <mxGeometry x="460" y="177" width="40" height="30" as="geometry" />
        </mxCell>
        <mxCell id="LyvjtfNTrB3PjkfO7Csg-9" value="userId1" style="ellipse;whiteSpace=wrap;html=1;align=center;" parent="1" vertex="1">
          <mxGeometry x="510" y="110" width="80" height="30" as="geometry" />
        </mxCell>
        <mxCell id="LyvjtfNTrB3PjkfO7Csg-10" style="edgeStyle=orthogonalEdgeStyle;rounded=0;orthogonalLoop=1;jettySize=auto;html=1;endArrow=none;startFill=0;" parent="1" source="LyvjtfNTrB3PjkfO7Csg-9" edge="1">
          <mxGeometry relative="1" as="geometry">
            <mxPoint x="550" y="170" as="targetPoint" />
          </mxGeometry>
        </mxCell>
        <mxCell id="LyvjtfNTrB3PjkfO7Csg-11" value="" style="edgeStyle=segmentEdgeStyle;endArrow=oval;html=1;curved=0;rounded=0;endSize=8;startSize=8;sourcePerimeterSpacing=0;targetPerimeterSpacing=0;endFill=1;" parent="1" edge="1">
          <mxGeometry width="100" relative="1" as="geometry">
            <mxPoint x="500" y="210" as="sourcePoint" />
            <mxPoint x="570" y="160" as="targetPoint" />
            <Array as="points">
              <mxPoint x="500" y="160" />
            </Array>
          </mxGeometry>
        </mxCell>
        <mxCell id="aSYSC3L2PsN-tJUrmpGh-2" style="edgeStyle=orthogonalEdgeStyle;rounded=0;orthogonalLoop=1;jettySize=auto;html=1;entryX=1;entryY=0.5;entryDx=0;entryDy=0;endArrow=none;startFill=0;" edge="1" parent="1" source="aSYSC3L2PsN-tJUrmpGh-1" target="LyvjtfNTrB3PjkfO7Csg-1">
          <mxGeometry relative="1" as="geometry" />
        </mxCell>
        <mxCell id="aSYSC3L2PsN-tJUrmpGh-1" value="userId2" style="ellipse;whiteSpace=wrap;html=1;align=center;" vertex="1" parent="1">
          <mxGeometry x="600" y="110" width="80" height="30" as="geometry" />
        </mxCell>
        <mxCell id="aSYSC3L2PsN-tJUrmpGh-3" value="pending" style="ellipse;whiteSpace=wrap;html=1;align=center;" vertex="1" parent="1">
          <mxGeometry x="600" y="230" width="80" height="30" as="geometry" />
        </mxCell>
        <mxCell id="aSYSC3L2PsN-tJUrmpGh-4" style="edgeStyle=orthogonalEdgeStyle;rounded=0;orthogonalLoop=1;jettySize=auto;html=1;endArrow=none;startFill=0;exitX=0;exitY=0.5;exitDx=0;exitDy=0;" edge="1" parent="1" source="aSYSC3L2PsN-tJUrmpGh-3">
          <mxGeometry relative="1" as="geometry">
            <mxPoint x="650" y="150" as="sourcePoint" />
            <mxPoint x="580" y="210" as="targetPoint" />
          </mxGeometry>
        </mxCell>
        <mxCell id="aSYSC3L2PsN-tJUrmpGh-6" value="&lt;u&gt;id&lt;/u&gt;" style="ellipse;whiteSpace=wrap;html=1;align=center;" vertex="1" parent="1">
          <mxGeometry x="100" y="540" width="80" height="30" as="geometry" />
        </mxCell>
        <mxCell id="aSYSC3L2PsN-tJUrmpGh-7" style="edgeStyle=orthogonalEdgeStyle;rounded=0;orthogonalLoop=1;jettySize=auto;html=1;endArrow=none;endFill=0;entryX=1;entryY=0.5;entryDx=0;entryDy=0;exitX=0.167;exitY=1.05;exitDx=0;exitDy=0;exitPerimeter=0;" edge="1" parent="1" source="zRT3j66zrKLXkPg_bXtF-9" target="aSYSC3L2PsN-tJUrmpGh-6">
          <mxGeometry relative="1" as="geometry">
            <mxPoint x="239" y="520" as="sourcePoint" />
            <mxPoint x="190" y="520" as="targetPoint" />
          </mxGeometry>
        </mxCell>
        <mxCell id="aSYSC3L2PsN-tJUrmpGh-8" value="type" style="ellipse;whiteSpace=wrap;html=1;align=center;" vertex="1" parent="1">
          <mxGeometry x="170" y="50" width="80" height="30" as="geometry" />
        </mxCell>
        <mxCell id="aSYSC3L2PsN-tJUrmpGh-9" style="edgeStyle=orthogonalEdgeStyle;rounded=0;orthogonalLoop=1;jettySize=auto;html=1;endArrow=none;endFill=0;exitX=0.5;exitY=1;exitDx=0;exitDy=0;entryX=0.5;entryY=0;entryDx=0;entryDy=0;" edge="1" parent="1" source="aSYSC3L2PsN-tJUrmpGh-8" target="YGZLaBeO1jee29N05eSP-2">
          <mxGeometry relative="1" as="geometry">
            <Array as="points" />
            <mxPoint x="160" y="115" as="sourcePoint" />
            <mxPoint x="230" y="160" as="targetPoint" />
          </mxGeometry>
        </mxCell>
      </root>
    </mxGraphModel>
  </diagram>
</mxfile>
